<svg id="Capa_1" enable-background="new 0 0 512 512" height="512" viewBox="0 0 512 512" width="512" xmlns="http://www.w3.org/2000/svg"><g><path d="m494.5 408.255h-9.215v-266.633c0-15.164-12.337-27.5-27.5-27.5h-109.085c1.924-1.098 3.543-2.706 4.616-4.675 1.572-2.883 1.896-6.331.889-9.459-4.443-13.806-11.956-26.807-21.726-37.598-2.201-2.431-5.342-3.875-8.617-3.96-3.266-.094-6.469 1.187-8.786 3.49l-7.662 7.619c-7.009-5.807-14.951-10.39-23.461-13.538l2.768-10.408c.842-3.166.341-6.583-1.373-9.375-1.718-2.798-4.547-4.795-7.763-5.479-14.18-3.013-29.167-3-43.34.039-3.213.689-6.039 2.69-7.753 5.492-1.709 2.795-2.204 6.213-1.356 9.377l2.786 10.399c-8.495 3.16-16.42 7.747-23.412 13.554l-7.612-7.601c-2.317-2.313-5.527-3.596-8.797-3.507-3.282.084-6.427 1.531-8.629 3.968-9.756 10.796-17.256 23.799-21.688 37.604-1.004 3.129-.678 6.577.897 9.459 1.052 1.925 2.625 3.505 4.494 4.6h-47.215c-4.142 0-7.5 3.358-7.5 7.5s3.358 7.5 7.5 7.5h59.482c-.026.833-.052 1.665-.052 2.5 0 4.559.383 9.1 1.144 13.573l-10.379 2.777c-2.496.668-4.701 2.146-6.295 4.15h-81.645c-7.444 0-13.5 6.056-13.5 13.5v206.133c0 7.444 6.056 13.5 13.5 13.5h355.57c7.444 0 13.5-6.056 13.5-13.5v-206.134c0-7.444-6.056-13.5-13.5-13.5h-80.883c-.219 0-.435.014-.649.033-1.601-2.056-3.839-3.574-6.379-4.251l-10.395-2.773c.752-4.452 1.132-8.972 1.132-13.508 0-.834-.027-1.667-.052-2.5h121.227c6.892 0 12.5 5.607 12.5 12.5v266.633h-428.571v-266.634c0-6.893 5.607-12.5 12.5-12.5h31.745c4.142 0 7.5-3.358 7.5-7.5s-3.358-7.5-7.5-7.5h-31.745c-15.164 0-27.5 12.336-27.5 27.5v266.633h-9.215c-9.649 0-17.5 7.851-17.5 17.5v10.256c0 26.191 21.309 47.5 47.5 47.5h219.772c4.142 0 7.5-3.358 7.5-7.5s-3.358-7.5-7.5-7.5h-219.772c-17.92 0-32.5-14.58-32.5-32.5v-10.256c0-1.378 1.122-2.5 2.5-2.5h132.421v13.846c0 9.649 7.851 17.5 17.5 17.5h177.158c9.649 0 17.5-7.851 17.5-17.5v-13.846h115.706 16.715c1.378 0 2.5 1.122 2.5 2.5v10.256c0 17.92-14.58 32.5-32.5 32.5h-167.228c-4.142 0-7.5 3.358-7.5 7.5s3.358 7.5 7.5 7.5h167.228c26.191 0 47.5-21.309 47.5-47.5v-10.256c0-9.649-7.851-17.5-17.5-17.5zm-62.215-38h-352.57v-203.133h79.441c4.541 12.351 11.527 23.937 20.37 33.707 2.205 2.436 5.352 3.88 8.634 3.961 3.286.082 6.478-1.201 8.792-3.515l7.598-7.598c7.009 5.813 14.952 10.401 23.466 13.556l-2.769 10.391c-.842 3.163-.344 6.58 1.367 9.371 1.715 2.798 4.54 4.797 7.753 5.484 7.097 1.517 14.378 2.286 21.64 2.286 7.29 0 14.597-.775 21.717-2.303 3.212-.689 6.037-2.691 7.75-5.491 1.708-2.793 2.204-6.209 1.358-9.372l-2.778-10.393c8.497-3.157 16.424-7.743 23.419-13.549l7.607 7.604c2.316 2.313 5.511 3.6 8.793 3.511 3.281-.083 6.427-1.526 8.632-3.963 8.836-9.767 15.814-21.346 20.352-33.69.014 0 .028.002.043.002h79.383v203.134zm-93.36-208.681c-3.52 9.717-8.818 18.89-15.495 26.825l-10.411-10.406c-1.407-1.406-3.313-2.195-5.302-2.195-.001 0-.001 0-.003 0-1.989 0-3.897.791-5.303 2.199-8.148 8.155-18.31 14.035-29.388 17.002-4 1.071-6.374 5.182-5.305 9.182l3.8 14.216c-10.202 1.814-20.748 1.818-30.957.012l3.788-14.215c1.066-4.001-1.312-8.11-5.313-9.178-11.091-2.96-21.268-8.838-29.43-17-2.929-2.93-7.678-2.929-10.607 0l-10.401 10.401c-6.668-7.922-11.964-17.08-15.486-26.779l14.206-3.801c1.922-.514 3.561-1.771 4.556-3.494s1.265-3.771.75-5.692c-1.483-5.535-2.235-11.264-2.235-17.028 0-5.741.746-11.447 2.216-16.959.513-1.922.241-3.97-.756-5.692s-2.638-2.977-4.561-3.489l-14.215-3.785c3.515-9.718 8.809-18.893 15.481-26.832l10.417 10.401c2.931 2.927 7.68 2.923 10.606-.007 8.146-8.156 18.306-14.038 29.382-17.008 4-1.073 6.373-5.185 5.302-9.185l-3.809-14.22c10.182-1.803 20.767-1.813 30.954-.027l-3.784 14.23c-1.064 4.001 1.316 8.108 5.317 9.174 11.081 2.952 21.252 8.819 29.413 16.966 2.924 2.919 7.658 2.924 10.587.011l10.462-10.404c6.685 7.938 11.991 17.116 15.516 26.838l-14.226 3.799c-1.922.514-3.562 1.77-4.558 3.492-.996 1.723-1.266 3.771-.752 5.692 1.479 5.526 2.229 11.248 2.229 17.004 0 5.746-.747 11.458-2.221 16.977-.513 1.922-.242 3.97.754 5.691.997 1.722 2.636 2.977 4.559 3.49zm8.154 275.527c0 1.378-1.122 2.5-2.5 2.5h-177.158c-1.378 0-2.5-1.122-2.5-2.5v-13.846h182.158z"/><path d="m256 88.351c-23.86 0-43.271 19.412-43.271 43.271 0 23.86 19.412 43.271 43.271 43.271s43.271-19.411 43.271-43.271c0-23.859-19.411-43.271-43.271-43.271zm0 71.542c-15.589 0-28.271-12.682-28.271-28.271s12.683-28.271 28.271-28.271 28.271 12.683 28.271 28.271c0 15.589-12.682 28.271-28.271 28.271z"/><path d="m224.775 261.169v-3.032c0-11.672-9.497-21.169-21.169-21.169-11.673 0-21.169 9.497-21.169 21.169v3.032h-21.383c-4.142 0-7.5 3.358-7.5 7.5s3.358 7.5 7.5 7.5h21.383v3.939c0 11.673 9.497 21.169 21.169 21.169 11.673 0 21.169-9.497 21.169-21.169v-3.939h126.171c4.142 0 7.5-3.358 7.5-7.5s-3.358-7.5-7.5-7.5zm-15 18.939c0 3.402-2.768 6.169-6.169 6.169-3.402 0-6.169-2.768-6.169-6.169v-21.971c0-3.401 2.768-6.169 6.169-6.169 3.402 0 6.169 2.768 6.169 6.169z"/><path d="m350.946 310.478h-24.337v-3.032c0-11.673-9.497-21.169-21.169-21.169-11.673 0-21.169 9.497-21.169 21.169v3.032h-123.218c-4.142 0-7.5 3.358-7.5 7.5s3.358 7.5 7.5 7.5h123.218v3.938c0 11.673 9.497 21.169 21.169 21.169s21.169-9.497 21.169-21.169v-3.938h24.337c4.142 0 7.5-3.358 7.5-7.5s-3.358-7.5-7.5-7.5zm-39.337 18.939c0 3.402-2.768 6.169-6.169 6.169-3.402 0-6.169-2.768-6.169-6.169v-21.97c0-3.402 2.768-6.169 6.169-6.169s6.169 2.768 6.169 6.169z"/></g></svg>