<svg id="Layer_1" enable-background="new 0 0 70 70" viewBox="0 0 70 70" xmlns="http://www.w3.org/2000/svg"><g><path d="m23.896 53.25708c7.20711 0 13.27393-5.88809 13.27393-13.2832 0-7.31934-5.95459-13.27393-13.27393-13.27393-7.32422 0-13.2832 5.95459-13.2832 13.27393-.00001 7.33342 6.01015 13.2832 13.2832 13.2832zm0-11.88135c-2.06836 0-3.75146-1.68359-3.75146-3.75342s1.68311-3.75342 3.75146-3.75342c2.06299 0 3.7417 1.68359 3.7417 3.75342s-1.67872 3.75342-3.7417 3.75342zm8.51965 6.70801c-2.245 2.37134-5.32587 3.66895-8.51868 3.66895-3.13176 0-6.22322-1.2451-8.53259-3.6748 1.64075-3.17383 4.93213-5.19922 8.52283-5.19922 3.70628-.00001 6.93894 2.09367 8.52844 5.20507zm-8.51965-19.88379c6.49219 0 11.77393 5.28174 11.77393 11.77393 0 2.56592-.83289 4.93506-2.22949 6.87256-1.46728-2.5084-3.79579-4.25132-6.43372-5.02002 1.28552-.95801 2.13098-2.47852 2.13098-4.2041 0-2.89697-2.35156-5.25342-5.2417-5.25342-2.89551 0-5.25146 2.35645-5.25146 5.25342 0 1.72607.84741 3.24707 2.13611 4.20508-2.67908.78613-4.99487 2.57129-6.43933 5.01514-1.396-1.93652-2.22852-4.30469-2.22852-6.86865-.00001-6.4922 5.28613-11.77394 11.7832-11.77394z"/><path d="m42.57178 37.39526h16.06543c.41406 0 .75-.33594.75-.75s-.33594-.75-.75-.75h-16.06543c-.41406 0-.75.33594-.75.75s.33593.75.75.75z"/><path d="m42.57178 44.06226h16.06543c.41406 0 .75-.33594.75-.75 0-.41455-.33594-.75-.75-.75h-16.06543c-.41406 0-.75.33545-.75.75 0 .41406.33593.75.75.75z"/><path d="m42.57178 50.72827h16.06543c.41406 0 .75-.33545.75-.75 0-.41406-.33594-.75-.75-.75h-16.06543c-.41406 0-.75.33594-.75.75 0 .41455.33593.75.75.75z"/><path d="m42.57178 30.72827h16.06543c.41406 0 .75-.33545.75-.75 0-.41406-.33594-.75-.75-.75h-16.06543c-.41406 0-.75.33594-.75.75 0 .41455.33593.75.75.75z"/><path d="m3 30.0271c.41406 0 .75-.33545.75-.75v-17.76514c0-1.79199 1.45801-3.25 3.25-3.25h18.50586c1.11816 0 2.14355.56299 2.74365 1.50684l3.97021 6.24756c.87598 1.37939 2.37451 2.20264 4.00879 2.20264h4.03467c.41406 0 .75-.33545.75-.75s-.33594-.75-.75-.75h-4.03467c-1.11816 0-2.14355-.56299-2.74316-1.50684l-3.97021-6.24805c-.87646-1.37891-2.37549-2.20215-4.00928-2.20215h-18.50586c-2.61914 0-4.75 2.13086-4.75 4.75v17.76514c0 .41455.33594.75.75.75z"/><path d="m7 63.23804h39.08057c.41406 0 .75-.33594.75-.75s-.33594-.75-.75-.75h-39.08057c-1.79199 0-3.25-1.45801-3.25-3.25v-24.83155c0-.41455-.33594-.75-.75-.75s-.75.33545-.75.75v24.83154c0 2.61915 2.13086 4.75001 4.75 4.75001z"/><path d="m50.06787 63.23804h12.93213c2.61914 0 4.75-2.13086 4.75-4.75v-37.01905c0-2.61914-2.13086-4.75-4.75-4.75h-18.81592c-.41406 0-.75.33545-.75.75s.33594.75.75.75h18.81592c1.79199 0 3.25 1.45801 3.25 3.25v37.01904c0 1.79199-1.45801 3.25-3.25 3.25h-12.93213c-.41406 0-.75.33594-.75.75s.33594.75001.75.75001z"/><path d="m12.04492 13.26929c0-.41406-.33594-.75-.75-.75h-2.21631c-.41406 0-.75.33594-.75.75 0 .41455.33594.75.75.75h2.21631c.41406 0 .75-.33545.75-.75z"/><path d="m15.14453 14.01929h2.2168c.41406 0 .75-.33545.75-.75 0-.41406-.33594-.75-.75-.75h-2.2168c-.41406 0-.75.33594-.75.75 0 .41455.33594.75.75.75z"/><path d="m23.42773 14.01929c.41406 0 .75-.33545.75-.75 0-.41406-.33594-.75-.75-.75h-2.2168c-.41406 0-.75.33594-.75.75 0 .41455.33594.75.75.75z"/></g></svg>